<svg xmlns="http://www.w3.org/2000/svg" viewBox="0 0 24 24" role="img" aria-label="Gmail">
  <path fill="#4285F4" d="M22 6.5v11c0 1.1-.9 2-2 2h-1V9.3l-7 5.25L5 9.3V19.5H4c-1.1 0-2-.9-2-2v-11c0-.55.22-1.05.59-1.41L12 12l9.41-6.91c.37.36.59.86.59 1.41z"/>
  <path fill="#34A853" d="M5 19.5V9.3L2.59 5.09A1.99 1.99 0 0 0 2 6.5v11c0 1.1.9 2 2 2h1z"/>
  <path fill="#EA4335" d="M19 19.5h1c1.1 0 2-.9 2-2v-11c0-.55-.22-1.05-.59-1.41L19 9.3v10.2z"/>
  <path fill="#C5221F" d="M22 6.5c0-.55-.22-1.05-.59-1.41L12 12 2.59 5.09A1.99 1.99 0 0 0 2 6.5"/>
  <path fill="#FBBC04" d="M2.59 5.09 12 12l9.41-6.91A2 2 0 0 0 20 4.5H4c-.74 0-1.39.4-1.41.59z"/>
</svg>
