<svg xmlns="http://www.w3.org/2000/svg" viewBox="0 0 24 24" fill="#635BFF" role="img" aria-label="Stripe">
  <path d="M13.976 9.15c-2.172-.806-3.356-1.426-3.356-2.409 0-.831.683-1.305 1.901-1.305 2.227 0 4.515.858 6.09 1.631l.89-5.494C18.252.975 15.697 0 12.165 0 9.667 0 7.589.759 6.104 2.98c-1.484 2.221-1.484 5.147.017 7.41 1.684 2.561 5.137 3.41 7.42 4.273 2.172.806 3.355 1.426 3.355 2.41 0 .83-.682 1.304-1.9 1.304-2.227 0-4.515-.858-6.09-1.631l-.89 5.494C7.397 23.025 9.952 24 13.484 24c2.498 0 4.576-.759 6.061-2.98 1.484-2.221 1.484-5.147-.017-7.41-1.684-2.561-5.137-3.41-7.421-4.273z"/>
</svg>
