<svg xmlns="http://www.w3.org/2000/svg" viewBox="0 0 24 24" fill="#F22F46" role="img" aria-label="Twilio">
  <path d="M12 0C5.373 0 0 5.373 0 12s5.373 12 12 12c6.627 0 12-5.373 12-12S18.627 0 12 0zm.036 19.599c-4.191 0-7.6-3.409-7.6-7.6 0-4.19 3.409-7.599 7.6-7.599 4.19 0 7.6 3.41 7.6 7.599 0 4.191-3.41 7.6-7.6 7.6zm0-13.199a5.598 5.598 0 0 0-5.6 5.6c0 3.089 2.511 5.6 5.6 5.6s5.6-2.511 5.6-5.6-2.511-5.6-5.6-5.6zm-2.4 8.4a1.2 1.2 0 1 1 0-2.4 1.2 1.2 0 0 1 0 2.4zm4.8 0a1.2 1.2 0 1 1 0-2.4 1.2 1.2 0 0 1 0 2.4zm0-4.8a1.2 1.2 0 1 1 0-2.4 1.2 1.2 0 0 1 0 2.4zm-4.8 0a1.2 1.2 0 1 1 0-2.4 1.2 1.2 0 0 1 0 2.4z"/>
</svg>
